<svg xmlns="http://www.w3.org/2000/svg" xmlns:vectornator="http://vectornator.io" xml:space="preserve" stroke-miterlimit="10" style="fill-rule:nonzero;clip-rule:evenodd;stroke-linecap:round;stroke-linejoin:round" viewBox="0 0 5499.41 4629.62">
  <g vectornator:layerName="Vect 1">
    <path vectornator:layerName="Curve 1" fill="#319628" d="M1239.85 2090.29c31.32-436.7 161.49-589.78 278.91-973.41 117.4-383.623 155.98-709.77 405.52-883.458C2173.81 59.7346 3123.49 3.2466 3430.17 217.023c306.7 213.759 335.59 596.467 463.81 1025.637 128.21 429.17 216.77 416.83 299.53 796.58 82.77 379.75-77.4 547.84 34.6 770.19 0 0 227.09 161.84 467.46 138.06 240.35-23.78 241.18-213.5 387.48-201.65 146.29 11.86 241.77 95.51 210.12 273.44-31.62 177.93-127.09 236.62-221.98 248.48-94.91 11.87-126.53-130.47-257.01-71.16-130.47 59.3-154.15 153.29-51.34 291.68 102.8 138.39-67.27 281.63-146.36 329.08-79.08 47.46-205.61 0-351.9 67.22-146.31 67.23-220.26 250.37-222.42 390.23-2.19 139.87-493.8 192.9-667.21-89.72 0 0-337.55-152.66-549.97-104.62-212.43 48.04-51.69 234.65-360.96 341.4-309.26 106.74-610.72-365.17-927.39-407.64-316.67-42.48-664.232 235.57-764.629 81.09-100.415-154.46 404.859-310.52 300.589-441.82-104.258-131.3-958.887 288.45-1063.8935-24.2-52.65-156.76 142.4505-218.94 350.8285-335.42 212.638-118.89 217.266-259.52 471.884-308.87 135.913-26.32 110.277 182.85 308.921 139.66 198.65-43.17 128.37-78.18 154.28-263.86 25.91-185.69-86.09-333.84-54.76-770.52Z"/>
  </g>
  <g vectornator:layerName="Layer 2" opacity=".69">
    <path vectornator:layerName="Curve" fill="#86db00" d="M2735.11 272.354C1707.3 272.318 1475.75 1500.38 1409.79 1754.06c-65.95 253.69-111.62 370.35-86.26 563.14 25.38 192.8 45.67 208.03-223.23 248.61-268.891 40.59-223.238 172.5-223.238 172.52 0 0-81.169-60.9-263.819 76.08-182.649 136.99-431.244 405.86-360.212 674.77 71.033 268.91 350.039 324.75 578.341 213.13 228.318-111.61 431.278 5.05 431.278 5.05s-289.213 268.89-131.94 537.8c157.29 268.88 482 131.92 482 131.92s71.05 208.02 492.16 213.08c421.11 5.09 563.17-86.23 583.46-177.54 0 0-117.38-53.37-136.06-213.56-17.72-151.81 56.31-409.43 293.32-461.27 487.05-106.55 400.85 588.57 400.85 588.57 10.14 142.05 289.18 380.47 588.51 268.85 299.34-111.61 523-257.98 507.37-517.46-15.63-259.47-146.95-314.16-202.76-410.55 0 0 96.36-114.43 64.59-184.91 0 0 41.09 14.51 87.81 11.79 46.72-2.72 99.08-22.7 99.08-22.7s68.77 254.04 251.42 248.97c182.65-5.09 242.76-129.64 242.74-129.65 0 0 129.17 70.85 283.85 12.91 155.53-58.24 336.52-245.88 320.51-460.08-31.95-427.2-478.07-511.96-595.05-474.2-116.98 37.78-237.67 170.46-237.65 170.46 0 0 53.46-85.54-79.59-151.4-133.07-65.87-212.64-41.21-212.64-41.21s-141.72-160.28-228.34-347.54c-56.75-122.69-60.14-258.49-88.26-362.91-71.03-263.84-197.85-451.57-253.66-654.51-55.81-202.95-31.44-1009.829-1059.26-1009.866Zm390.42 537.096c261.28.79 438.5 291.31 453.06 539.28 3.69 62.68-54.74 304.18-237.01 310.92-140.39 5.2-444.3 402.27-566.18 221.29-133.8-198.68-89.69-641.88 1.38-842.62 65-143.293 187.53-209.441 295.36-225.014 18.15-2.626 35.96-3.911 53.39-3.856Zm-905.48 79.939c79.46-1.928 102.89 35.938 178.31 48.261 116.07 18.988 219.93 40.548 234.77 202.01 15.19 165.27 88.02 705.53-68.24 759.24-141.15 48.52-205.03-134.85-517.06-96.3-127.5 15.76-226.06-36.67-242.24-91.69-97.66-332.06 91.05-757.706 349.16-813.019 25.63-5.49 46.97-8.043 65.3-8.502ZM2137.7 1948.83c201.29 1.78 357.41 165.17 357.41 165.17s123.17-12.34 210.85 8.43c87.67 20.77 143.06 110.75 143.06 110.75s73.82-165.82 214.58-200.44c140.77-34.62 256.18 48.15 256.18 48.15s73.85-138.47 230.75-87.69c156.92 50.76 378.41 380.71 325.34 533.02-53.07 152.29-272.3 189.26-272.3 189.26s-68.58 132.08-146.81 186.34c-78.23 54.25-254.69 35.17-254.69 35.17s-90 149.96-263.07 140.72c-173.06-9.23-198.44-80.74-198.44-80.74s-71.27 20.23-130.84 1.78c-59.58-18.46-107.43-75.64-107.43-75.64s-90.04 112.53-148.64 118.96c-58.58 6.44-85.21-24.61-85.21-24.61s-42.46 39.52-100.16 30.3c-57.68-9.24-60.53-63.3-60.53-63.3s-88.13 85.67-156.33 54.05c-68.21-31.61-48.5-152.3-48.5-152.3s-170.73-191.54-179.97-272.3c-9.22-80.77 45.14-565.36 299.01-647.39 39.66-12.82 78.47-18.02 115.74-17.69Z" opacity="1"/>
  </g>
  <g vectornator:layerName="Layer 3" fill="#edff00" opacity=".53">
    <path vectornator:layerName="Curve 1" d="M2645.07 8.6456c732-21.6321 1330.89 923.7864 1347.72 1277.8844 20 420.6-114.63 856.28-80.91 1024.85 33.72 168.56 170.13 457.37 148.33 687.73-21.78 230.36-94.39 222.5-134.85 279.82-40.46 57.31-168.33 314.21-164.97 361.4 3.38 47.2 96.18-19.24 67.68 101.67-28.49 120.91-249.94 140.39-280.28 52.74-30.35-87.65 91.27-93.88 87.95-149.26-3.31-55.39-50.56-250.89-132.13-243.38-81.59 7.51 1.63 89.17-107.52 89.23-109.18.05-48.1-254.11-340.55-249.5-292.45 4.63-153.91 428.62-349.25 432.62-121.95 2.5-47.17-90.7-88.58-187.18-22.59-52.61-99.61-13.37-98.93-60.18 1.03-71.07-43.21-103.7-58.4-117.93-13.68-12.82-4.13-106.31-36.73-105.87-32.61.44-13.42 77.51-42.79 69.98-34.15-8.76-39.15-47.54-123.04-43.63-168.45 7.82-180.57 160.39-174.95 185.94 5.6 25.54 83.32-70.23 102.93 92.61 19.61 162.81-175.3 188.78-205.64 53.93-30.34-134.85 77.92-61.11 58.78-200.46-5.91-43.08-18.95-70.45-18.95-70.45s-31.37 5.4-63.96-22.07c-12.78-10.78-12.34-35.28-26.8-51.69-74.17-84.28-72.18-7.72-132.07-185.02-26.77-79.32-1.69-245.6-45.63-346.09-54.29-124.18-225.46-173.53-225.46-173.53s18.56 276.66-117.13 225.18c-135.67-51.49-200.72-668.45-176.26-1384.15C1257.13 638.131 1792.05 33.8541 2645.07 8.6456Z" opacity="1"/>
    <path vectornator:layerName="Curve 2" d="M1206.48 2777.9c65.32-57.39 206.06 9.53 248.89 48.28 42.8 38.75 115.23 178.59 66.68 228.34-48.56 49.73-172.59 51.33-255.01-28.87-82.42-80.2-125.86-190.36-60.56-247.75Z" opacity="1"/>
    <path vectornator:layerName="Curve 3" d="M2688.06 3702.15s-232.77 79.59-227.99 187.18c1.58 35.91 48.2 78.85 120.37 82.48 144.18 7.27 342.28-82.74 376.16-148 16.82-32.45 9.22-41.69-24.85-76.71-34.05-35.02-243.69-44.95-243.69-44.95Z" opacity="1"/>
    <path vectornator:layerName="Curve 4" d="M3566.47 3940.66c51.38-26.35 321.63 11.7 335.16 96.43 13.52 84.75-54.87 198.87-205.71 181.31-150.84-17.56-156.11-85.83-178.45-132.2-22.33-46.37-2.4-119.19 49-145.54Z" opacity="1"/>
  </g>
  <g vectornator:layerName="Layer 4">
    <path vectornator:layerName="Curve 1" fill="#7826ad" d="M2588.34 1817.47c106.44-94.31 93.16-798.78-307.29-839.97-400.43-41.191-459.17 528.78-354.44 639.99 104.75 111.23 174.48-5.09 268.85 36.05 94.37 41.12 286.42 258.23 392.88 163.93ZM2845.88 1815.57c-107.85-81.96-125.1-854.12 250.19-880.014 375.29-25.875 409.82 461.584 336.47 590.994-73.33 129.41-133.73 47.45-224.32 86.28-90.59 38.82-254.51 284.69-362.34 202.74Z"/>
    <path vectornator:layerName="Curve 2" fill="#7826ad" d="M2105.82 2846.56c108.46 39.05 203.61-212.6 401.66-178.77 198.08 33.81 213.16 285.32 428.99 207.15 215.83-78.2 105.54-111.03 201.09-153 95.55-41.94 43.39 10.22 173.63 2.76 130.22-7.46 61.13-70.45 177.62-70.45 116.46 0 14.17-97.75 130.88-152.62 0 0 127.26-13.7 62.57-259.58-64.72-245.87-206.49-207.14-206.49-207.14-90.59 21.57-65.45 77.29-135.64 104.95-70.19 27.65-124.34-49.46-214.93-23.56-90.59 25.87-140.65 173.96-270.21 178.18-129.54 4.23-106.73-114.7-243.22-50.77-136.48 63.9-112.09 138.61-231.79 93.82-119.68-44.79 15.37-203.77-151.56-278.57 0 0-29.47 90.13-83.28 82.55-53.82-7.6-79.57-105.36-79.57-105.36-38.23-5.54-158.04 159.68-124.34 417.11 33.69 257.43 56.12 354.26 164.59 393.3Z"/>
    <path vectornator:blendMode="multiply" vectornator:layerName="Curve" fill="#630098" d="M3157.54 2111.01c-10.29.42-21.05 2.05-32.36 5.29-6.13 1.74-12.07 4.13-17.85 6.94-.7.33-1.38.79-2.08 1.14-16.98 8.66-32.74 21.34-48.2 35.93-16.07 15.17-31.84 32.38-48.37 49.29-1.14 1.16-2.37 2.24-3.51 3.38-.15.17-.29.35-.46.54-5.95 6.06-12.03 12.01-18.23 17.83-1.12 1.04-2.17 2.13-3.27 3.16-1.91 1.74-3.88 3.36-5.81 5.05l-.05.05c-1.95 1.73-3.88 3.44-5.86 5.12-.59.48-1.14 1-1.73 1.49-2.73 2.28-5.56 4.41-8.37 6.59-1.69 1.33-3.34 2.7-5.05 3.97-.05.04-.11.07-.17.11-.14.11-.27.24-.4.35-1.03.75-2.18 1.32-3.21 2.06-5.4 3.85-10.87 7.55-16.59 10.91-4.59 2.7-9.2 5.3-14.01 7.64-.13.05-.27.11-.4.16h-.06c-1.28.62-2.59 1.19-3.89 1.78-2.61 1.18-5.2 2.39-7.86 3.44-2.48.97-5.05 1.78-7.58 2.64-.96.33-1.9.66-2.87.97-.07.04-.16.04-.24.06-5.01 1.6-10.13 3.03-15.42 4.13-1.07.24-2.21.39-3.27.59-1.36.24-2.72.46-4.08.68-6.89 1.12-13.92 1.94-21.3 2.18-7.4.24-14.2-.02-20.66-.51-2.09-.17-4.02-.46-6.02-.7-.1 0-.19-.04-.28-.05-4.17-.5-8.21-1.07-12.01-1.84-.06 0-.11.02-.17 0-2.2-.44-4.33-.96-6.42-1.49-1.34-.35-2.83-.6-4.13-.97-2.04-.59-3.82-1.36-5.73-2.02-.02 0-.06.02-.08 0-1.71-.59-3.47-1.14-5.1-1.76-.66-.28-1.42-.48-2.06-.76-3.03-1.25-5.82-2.68-8.61-4.07-.06-.02-.13-.04-.17-.06-.79-.4-1.65-.75-2.42-1.16-.15-.07-.31-.14-.46-.22-4.1-2.18-7.9-4.51-11.59-6.94-.02-.02-.04 0-.05 0-5.84-3.85-11.13-7.86-16.29-11.93-.35-.28-.76-.54-1.1-.81-5.39-4.26-10.49-8.47-15.67-12.45-.13-.11-.27-.19-.4-.3-.61-.46-1.23-.86-1.84-1.32-1.54-1.16-3.2-2.06-4.76-3.14-3.23-2.28-6.42-4.63-9.82-6.56-.11-.05-.22-.16-.33-.22-.85-.47-1.67-.99-2.54-1.43-.03-.02-.07-.04-.11-.05-1.45-.78-2.97-1.4-4.48-2.08-.03-.02-.07-.04-.11-.05-2.07-.94-4.22-1.77-6.42-2.54-.63-.2-1.27-.37-1.9-.57-.95-.29-1.89-.64-2.86-.92-.04 0-.09.02-.13 0-2.37-.64-4.87-1.13-7.4-1.54-.09-.02-.18-.05-.29-.05-1.56-.26-3.11-.54-4.76-.7-4.41-.41-9-.57-13.99-.22-4.74.33-9.96 1.17-15.34 2.29-2.16.44-4.48 1.07-6.76 1.66-3.78.97-7.71 2.13-11.82 3.5h-.06c-2.27.76-4.51 1.47-6.88 2.35-.04.02-.1.04-.13.06-6.61 2.46-13.52 5.25-21.07 8.78-8.11 3.8-15.61 7.69-22.66 11.53-.64.37-1.19.68-1.83 1.05-1.8.99-3.42 1.98-5.16 2.97-.61.35-1.14.7-1.73 1.03-3.82 2.24-7.73 4.44-11.24 6.67-.05.03-.13.07-.18.11-2.06 1.3-3.9 2.6-5.86 3.91-4.24 2.81-8.45 5.65-12.27 8.43-.09.05-.14.11-.24.16-.71.54-1.36 1.05-2.05 1.56-4.17 3.07-8.1 6.06-11.83 9.06-1.74 1.41-3.16 2.7-4.83 4.07-.53.46-1.06.89-1.6 1.33-.07.07-.14.11-.24.18-45.04 37.98-59.97 65.93-120.34 51.02-4.37-1.09-8.94-2.32-13.82-3.86-.06-.02-.11-.04-.17-.06-4.92-1.5-10.14-3.23-15.72-5.32-5.29-1.98-9.95-4.26-14.31-6.67-.42-.24-.99-.44-1.43-.68-.38-.24-.64-.53-1.03-.75-.03-.02-.07-.04-.11-.06-4.11-2.46-7.89-5.06-11.2-7.91-.02-.02-.03-.06-.05-.07-.02-.02-.08-.02-.11-.06-.08-.07-.15-.15-.22-.22-3.42-2.99-6.38-6.17-9.02-9.53-.13-.15-.28-.29-.4-.46-.08-.09-.11-.2-.17-.27-.02-.04-.06-.04-.06-.08-2.53-3.3-4.66-6.81-6.55-10.43-.11-.22-.28-.42-.39-.64-2.04-4-3.67-8.21-5.07-12.56 0-.02-.03-.04-.05-.06-.85-2.66-1.41-5.49-2.06-8.26-.05-.2-.07-.39-.11-.59-.35-1.51-.86-2.92-1.15-4.46-.11-.64-.17-1.32-.3-1.97-.6-3.43-1.12-6.98-1.54-10.54-.07-.6-.17-1.19-.22-1.78-.09-.86-.15-1.78-.24-2.64-.39-4.01-.7-8.1-.92-12.23-.6-11.11-.88-22.54-1.32-34.25-.29-7.94-.79-15.92-1.54-23.95-.5-5.33-1.1-10.69-1.95-16-.16-.99-.29-2-.46-2.99-1.12-6.43-2.61-12.83-4.48-19.17-.27-.9-.62-1.8-.92-2.68-1.67-5.24-3.69-10.36-6.02-15.45-1.84-3.98-3.71-7.95-6.02-11.82-162.97 118.92-291.13 298.14-336.01 491.35 21.17 117.29 47.08 181.56 101.4 217.15 0 .02-.01.04 0 .08 11.89 7.77 24.96 14.32 39.82 19.67 46.92 16.89 91.8-21.03 143.13-66.28 67.36-59.37 146.18-131.67 258.58-112.48 198.08 33.83 213.15 285.34 428.99 207.16 215.83-78.17 105.54-111.02 201.09-152.99 71.71-31.49 60.19-10.01 105.08-.46 14.91 3.18 36.03 5.07 68.51 3.22 102.79-5.9 81.7-46.28 125.39-63.06 11.66-4.5 27.68-7.41 52.23-7.41 31.81 0 47.05-7.45 55.15-19.17-31.77-226.72-161.97-403.02-333.94-516.67-7.97-2.33-16.16-4.34-24.62-5.68-1.78-.27-3.64-.42-5.46-.62-2.7-.33-5.38-.68-8.15-.86-4.65-.3-9.38-.44-14.23-.24Z" opacity=".6"/>
    <path vectornator:blendMode="multiply" vectornator:layerName="Curve" fill="#630098" d="M3057.05 2160.31c-16.07 15.17-31.84 32.38-48.37 49.29-1.14 1.16-2.37 2.24-3.51 3.38-.15.17-.29.35-.46.54-5.95 6.06-12.03 12.01-18.23 17.83-1.12 1.04-2.17 2.13-3.27 3.16-1.91 1.74-3.88 3.36-5.81 5.05l-.05.05c-1.95 1.73-3.88 3.44-5.86 5.12-.59.48-1.14 1-1.73 1.49-2.73 2.28-5.56 4.41-8.37 6.59-1.69 1.33-3.34 2.7-5.05 3.97-.05.04-.11.07-.17.11-.14.11-.27.24-.4.35-1.03.75-2.18 1.32-3.21 2.06-5.4 3.85-10.87 7.55-16.59 10.91-4.59 2.7-9.2 5.3-14.01 7.64-.13.05-.27.11-.4.16h-.06c-1.28.62-2.59 1.19-3.89 1.78-2.61 1.18-5.2 2.39-7.86 3.44-2.48.97-5.05 1.78-7.58 2.64-.96.33-1.9.66-2.87.97-.07.04-.16.04-.24.06-5.01 1.6-10.13 3.03-15.42 4.13-1.07.24-2.21.39-3.27.59-1.36.24-2.72.46-4.08.68-6.89 1.12-13.92 1.94-21.3 2.18-7.4.24-14.2-.02-20.66-.51-2.09-.17-4.02-.46-6.02-.7-.1 0-.19-.04-.28-.05-4.17-.5-8.21-1.07-12.01-1.84-.06 0-.11.02-.17 0-2.2-.44-4.33-.96-6.42-1.49-1.34-.35-2.83-.6-4.13-.97-2.04-.59-3.82-1.36-5.73-2.02-.02 0-.06.02-.08 0-1.71-.59-3.47-1.14-5.1-1.76-.66-.28-1.42-.48-2.06-.76-3.03-1.25-5.82-2.68-8.61-4.07-.06-.02-.13-.04-.17-.06-.79-.4-1.65-.75-2.42-1.16-.15-.07-.31-.14-.46-.22-4.1-2.18-7.9-4.51-11.59-6.94-.02-.02-.04 0-.05 0-5.84-3.85-11.13-7.86-16.29-11.93-.35-.28-.76-.54-1.1-.81-5.39-4.26-10.49-8.47-15.67-12.45-.13-.11-.27-.19-.4-.3-.61-.46-1.23-.86-1.84-1.32-1.54-1.16-3.2-2.06-4.76-3.14-3.23-2.28-6.42-4.63-9.82-6.56-.11-.05-.22-.16-.33-.22-.85-.47-1.67-.99-2.54-1.43-.03-.02-.07-.04-.11-.05-1.45-.78-2.97-1.4-4.48-2.08-.03-.02-.07-.04-.11-.05-2.07-.94-4.22-1.77-6.42-2.54-.63-.2-1.27-.37-1.9-.57-.95-.29-1.89-.64-2.86-.92-.04 0-.09.02-.13 0-2.37-.64-4.87-1.13-7.4-1.54-.09-.02-.18-.05-.29-.05-1.56-.26-3.11-.54-4.76-.7-4.41-.41-9-.57-13.99-.22-4.74.33-9.96 1.17-15.34 2.29-2.16.44-4.48 1.07-6.76 1.66-3.78.97-7.71 2.13-11.82 3.5h-.06c-2.27.76-4.51 1.47-6.88 2.35-.04.02-.1.04-.13.06-6.61 2.46-13.52 5.25-21.07 8.78-8.11 3.8-15.61 7.69-22.66 11.53-.64.37-1.19.68-1.83 1.05-1.8.99-3.42 1.98-5.16 2.97-.61.35-1.14.7-1.73 1.03-3.82 2.24-7.73 4.44-11.24 6.67-.05.03-.13.07-.18.11-2.06 1.3-3.9 2.6-5.86 3.91-4.24 2.81-8.45 5.65-12.27 8.43-.09.05-.14.11-.24.16-.71.54-1.36 1.05-2.05 1.56-4.17 3.07-8.1 6.06-11.83 9.06-1.74 1.41-3.16 2.7-4.83 4.07-.53.46-1.06.89-1.6 1.33-.07.07-.14.11-.24.18-45.04 37.98-59.97 65.93-120.34 51.02-4.37-1.09-8.94-2.32-13.82-3.86-.06-.02-.11-.04-.17-.06-4.92-1.5-10.14-3.23-15.72-5.32-5.29-1.98-9.95-4.26-14.31-6.67-.42-.24-.99-.44-1.43-.68-.38-.24-.64-.53-1.03-.75-.03-.02-.07-.04-.11-.06-4.11-2.46-7.89-5.06-11.2-7.91-.02-.02-.03-.06-.05-.07-.02-.02-.08-.02-.11-.06-.08-.07-.15-.15-.22-.22-3.42-2.99-6.38-6.17-9.02-9.53-.13-.15-.28-.29-.4-.46-.08-.09-.11-.2-.17-.27-.02-.04-.06-.04-.06-.08-2.53-3.3-4.66-6.81-6.55-10.43-.11-.22-.28-.42-.39-.64-2.04-4-3.67-8.21-5.07-12.56 0-.02-.03-.04-.05-.06-.85-2.66-1.41-5.49-2.06-8.26-.05-.2-.07-.39-.11-.59-.35-1.51-.86-2.92-1.15-4.46-.11-.64-.17-1.32-.3-1.97-.6-3.43-1.12-6.98-1.54-10.54-.07-.6-.17-1.19-.22-1.78-.09-.86-.15-1.78-.24-2.64-.39-4.01-.7-8.1-.92-12.23-171.19 143.79-286.24 365.66-257.32 582.19 0 .02-.01.04 0 .08 11.89 7.77 24.96 14.32 39.82 19.67 46.92 16.89 91.8-21.03 143.13-66.28 67.36-59.37 146.18-131.67 258.58-112.48 198.08 33.83 213.15 285.34 428.99 207.16 215.83-78.17 105.54-111.02 201.09-152.99 71.71-31.49 60.19-10.01 105.08-.46 14.91 3.18 36.03 5.07 68.51 3.22 102.79-5.9 81.7-46.28 125.39-63.06-30.72-236.28-185.9-409.58-379.51-501.35Z" opacity=".6"/>
    <path vectornator:blendMode="multiply" vectornator:layerName="Curve" fill="#630098" d="M2673.83 2225.05c-4.74.33-9.96 1.17-15.34 2.29-2.16.44-4.48 1.07-6.76 1.66-3.78.97-7.71 2.13-11.82 3.5h-.06c-2.27.76-4.51 1.47-6.88 2.35-.04.02-.1.04-.13.06-6.61 2.46-13.52 5.25-21.07 8.78-8.11 3.8-15.61 7.69-22.66 11.53-.64.37-1.19.68-1.83 1.05-1.8.99-3.42 1.98-5.16 2.97-.61.35-1.14.7-1.73 1.03-3.82 2.24-7.73 4.44-11.24 6.67-.05.03-.13.07-.18.11-2.06 1.3-3.9 2.6-5.86 3.91-4.24 2.81-8.45 5.65-12.27 8.43-.09.05-.14.11-.24.16-.71.54-1.36 1.05-2.05 1.56-4.17 3.07-8.1 6.06-11.83 9.06-1.74 1.41-3.16 2.7-4.83 4.07-.53.46-1.06.89-1.6 1.33-.07.07-.14.11-.24.18-45.04 37.98-59.97 65.93-120.34 51.02-113.98 111.7-186.72 274.36-161.14 431.66.11.63.24 1.21.35 1.84 67.36-59.37 146.18-131.67 258.58-112.48 198.08 33.83 213.15 285.34 428.99 207.16 215.83-78.17 105.54-111.02 201.09-152.99 71.71-31.49 60.19-10.01 105.08-.46.49-13.97.53-28.33-.24-43.5-10.31-201.64-132.83-347.91-286.65-420.76-1.03.75-2.18 1.32-3.21 2.06-5.4 3.85-10.87 7.55-16.59 10.91-4.59 2.7-9.2 5.3-14.01 7.64-.13.05-.27.11-.4.16h-.06c-1.28.62-2.59 1.19-3.89 1.78-2.61 1.18-5.2 2.39-7.86 3.44-2.48.97-5.05 1.78-7.58 2.64-.96.33-1.9.66-2.87.97-.07.04-.16.04-.24.06-5.01 1.6-10.13 3.03-15.42 4.13-1.07.24-2.21.39-3.27.59-1.36.24-2.72.46-4.08.68-6.89 1.12-13.92 1.94-21.3 2.18-7.4.24-14.2-.02-20.66-.51-2.09-.17-4.02-.46-6.02-.7-.1 0-.19-.04-.28-.05-4.17-.5-8.21-1.07-12.01-1.84-.06 0-.11.02-.17 0-2.2-.44-4.33-.96-6.42-1.49-1.34-.35-2.83-.6-4.13-.97-2.04-.59-3.82-1.36-5.73-2.02-.02 0-.06.02-.08 0-1.71-.59-3.47-1.14-5.1-1.76-.66-.28-1.42-.48-2.06-.76-3.03-1.25-5.82-2.68-8.61-4.07-.06-.02-.13-.04-.17-.06-.79-.4-1.65-.75-2.42-1.16-.15-.07-.31-.14-.46-.22-4.1-2.18-7.9-4.51-11.59-6.94-.02-.02-.04 0-.05 0-5.84-3.85-11.13-7.86-16.29-11.93-.35-.28-.76-.54-1.1-.81-5.39-4.26-10.49-8.47-15.67-12.45-.13-.11-.27-.19-.4-.3-.61-.46-1.23-.86-1.84-1.32-1.54-1.16-3.2-2.06-4.76-3.14-3.23-2.28-6.42-4.63-9.82-6.56-.11-.05-.22-.16-.33-.22-.85-.47-1.67-.99-2.54-1.43-.03-.02-.07-.04-.11-.05-1.45-.78-2.97-1.4-4.48-2.08-.03-.02-.07-.04-.11-.05-2.07-.94-4.22-1.77-6.42-2.54-.63-.2-1.27-.37-1.9-.57-.95-.29-1.89-.64-2.86-.92-.04 0-.09.02-.13 0-2.37-.64-4.87-1.13-7.4-1.54-.09-.02-.18-.05-.29-.05-1.56-.26-3.11-.54-4.76-.7-4.41-.41-9-.57-13.99-.22Z" opacity=".6"/>
  </g>
  <g vectornator:layerName="Layer 8">
    <path vectornator:layerName="Curve" fill="#bb5900" d="M2860.88 2420.94c-94.13 1.06-169 82.42-169 82.42s-34.62-48.94-186.95-24.81c-152.33 24.13-302.55 188.69-359.82 370.29 93.89-20.44 188.48-210.75 362.39-181.05 198.08 33.83 213.15 285.34 428.99 207.16 215.83-78.17 105.54-111.02 201.09-152.99 95.54-41.96 43.35 10.21 173.59 2.76 64.02-3.68 79.85-20.77 93.25-37.19-96.37-159.01-449.4-267.66-543.54-266.59Z"/>
    <path vectornator:layerName="Curve" fill="#df9000" d="M2578.72 2471.86c-20.83.2-45.23 2.13-73.79 6.67-152.33 24.13-302.55 188.71-359.82 370.31 5.54-1.19 11.07-3.14 16.63-5.44 2.94-1.23 5.9-2.8 8.85-4.31 2.37-1.21 4.78-2.3 7.17-3.67 4.5-2.59 8.99-5.49 13.55-8.62.46-.31.95-.58 1.43-.91.19-.13.37-.32.57-.46 5.2-3.62 10.45-7.46 15.72-11.59 107.82-143.11 323.93-295.54 454.92-327.18.69-.16 1.04-.35 1.72-.51-17.24-7.53-44.11-14.67-86.95-14.29ZM2860.9 2420.9c-87.87.99-156.44 69.66-165.5 79.1-24.73 43.26-46.68 87.39-53.2 114.18-8.39 34.42-15.22 70.39-20.95 106.35l.06.06c7.8 6.18 15.31 12.65 22.55 19.33.29.28.64.48.91.76.17.14.32.31.46.46 7.31 6.79 14.4 13.69 21.31 20.77l.16.16c76.65-146.91 217.89-246.54 346.92-310.41-66.09-20.11-122.66-31.09-152.72-30.76Z"/>
  </g>
  <g vectornator:layerName="Layer 10" fill="#630098">
    <path vectornator:blendMode="multiply" vectornator:layerName="Curve" d="M2287.37 1040.32c-135.69 2.1-292.28 172.09-316.61 297.8-19.01 98.26-6.52 243.89 17.44 322.45 73.33 26.02 132.59-39.57 207.24-7.05 60.58 26.39 161.4 125 254 167.52 2.92-31.64 5.61-62.4 11.12-82.31 15.67-56.51-.42 13.59 46.54-12.1 46.97-25.69 28.43-53.37 39.61-115.02 11.18-61.63 54.34-48.42 54.34-207.68 0-159.23-129.28-320.14-272.41-358.67-13.43-3.61-27.24-5.16-41.27-4.94ZM3122.3 1014.39c-207.06 2.72-301.96 231.34-306.28 348.33-4.32 117.02 86.31 176.85 105.72 253.04 17.87 70.12 24.87 160.78 66.22 179.05 81.1-56.08 164.53-158.11 220.26-181.98 68.19-29.22 119.28 9.93 171.65-24.1 21.14-65.15 31.26-142.8 35.81-228.76 6.47-122.43-86.31-348.31-293.38-345.58Z" opacity=".6011"/>
  </g>
  <g vectornator:layerName="Layer 10 copy" fill="#630098">
    <path vectornator:blendMode="multiply" vectornator:layerName="Curve 1" d="M2337.76 1112c108 24.77 205.53 128.22 205.53 230.62 0 102.39-32.57 93.89-41 133.54-8.43 39.63 5.56 57.44-29.86 73.95-35.45 16.53-23.31-28.54-35.12 7.81-11.8 36.32-5.05 127.17-40.49 135.41-35.42 8.27-43.87-84.21-67.49-82.56-23.63 1.65-32.06 41.28-75.93 36.32-43.87-4.96-57.37-133.76-86.06-138.72-28.68-4.96-28.68 37.98-60.74 34.67-32.07-3.29-59.06-153.58-38.81-242.77 20.24-89.18 161.99-213.04 269.97-188.27Z" opacity=".6011"/>
    <path vectornator:blendMode="multiply" vectornator:layerName="Curve 2" d="M3079.77 1098.43c157.03-1.75 227.36 141.95 222.46 219.87-4.92 77.9-18 145.43-52.36 193.89-34.34 48.48-35.97 6.94-68.7 27.71-32.7 20.77-19.61 98.69-73.6 102.14-53.97 3.47-21.27-86.57-63.78-74.45-42.53 12.12-18 32.89-57.26 29.44-39.24-3.47-44.16-67.52-58.87-116-14.73-48.47-83.43-86.55-80.16-161 3.26-74.45 75.25-219.88 232.27-221.6Z" opacity=".6011"/>
  </g>
  <g vectornator:layerName="Layer 6 copy copy">
    <g vectornator:layerName="Group 1" fill="#bb5900">
      <path vectornator:layerName="Curve 1" d="M3087.96 1158.53c81.15 0 150.12 87.42 150.12 155.88 0 70.74-17.57 55.35-30.72 92.77-7.22 20.55-8.93 50.34-16.62 59.45-13.52 16.03-35.17 2.92-48.68 16.03-13.54 13.11-12.18 74.28-41.27 75.02-29.07.73-22.99-56.09-48.02-55.35-25.01.71-10.82 18.2-36.51 19.67-13.35.75-40.88-25.31-47.67-65.67-5.77-34.12-59.19-45.05-59.87-146.29-.53-80.14 98.07-151.51 179.24-151.51Z"/>
      <path vectornator:layerName="Curve 2" d="M2337.73 1186.91c126.89 5.74 158.96 99.66 168.12 148.86 9.15 49.19-16.36 75.38-21.6 91.36-5.23 15.97-1.3 41.54-17 53.68-15.7 12.13-26.17-1.29-43.18 13.4-17 14.69-6.53 80.51-34.67 85.61-28.13 5.11-32.7-53.03-45.14-52.39-12.43.64-18.31 23.01-39.9 22.37-21.58-.64-49.71-86.26-66.72-88.81-17.02-2.55-10.47 14.69-39.26 13.42-28.78-1.28-45.14-107.98-32.05-152.07 13.08-44.07 44.48-141.18 171.4-135.43Z"/>
    </g>
  </g>
  <g vectornator:layerName="Layer 7" fill="#ff0">
    <path vectornator:layerName="Curve 1" d="M3042.5 1242.22c45.27-1.01 94.6 38.89 97.65 84.42 3.05 45.5-42.72 90.88-87.99 91.89-45.25 1.03-89.98-42.33-93.05-87.83-3.05-45.51 38.15-87.45 83.39-88.48Z"/>
    <path vectornator:layerName="Curve 2" d="M2343.95 1262.29c46.85-6.54 88.48 33.17 94.1 78.36 5.62 45.19-24.76 95.86-71.6 102.4-46.83 6.54-99.59-35.08-105.21-80.27-5.64-45.19 35.86-93.97 82.71-100.49Z"/>
  </g>
  <g vectornator:layerName="Layer 9" fill="none" stroke="#e2f0ff" stroke-width="37.0285">
    <path vectornator:blendMode="overlay" vectornator:layerName="Curve 1" d="M2078.42 221.633c-19.57 0-35.77 16.234-54.9 21.963-164.03 49.216-296.79 161.384-406.35 289.198-45.12 52.632-96.83 99.92-131.78 161.072-160.61 281.081-206.56 622.854-186.69 940.774 3.6 57.37-7.21 115.09-3.65 172.04 4.11 65.92 22.09 129.24 29.29 194.01 10.12 91.09 5.42 184.4 18.29 274.55 6.85 47.93 10.61 98.01 14.65 146.43 4.06 48.69 19.78 110.5-3.67 157.4-30.12 60.25-106.84 38.05-157.4 54.91-46.51 15.5-88.9 50.37-135.43 65.89-28.27 9.42-55.79 13.15-80.548 32.95-15.867 12.7-44.496 70.37-40.254 91.5 3.03 15.23 44.992 42.08 54.909 58.59 6.723 11.22 36.803 77.46 29.273 54.9"/>
    <path vectornator:blendMode="overlay" vectornator:layerName="Curve 2" d="M877.742 2959.78c0-20.13-46.131-51.99-58.582-76.87-9.99-20-7.309-40.06-7.309-62.24 0-8.89 7.309-34.51 7.309-25.62 0 67.89-84.034 34.75-117.126 40.26-24.828 4.15-57.719 24.95-76.872 40.27-16.932 13.53-89.838 76.56-76.873 102.49 9.642 19.3 47.582-7.03 47.582-21.96 0-22.28-39.924-6.63-29.291 14.65 11.863 23.71 52.044 4.06 21.964-10.98"/>
    <path vectornator:blendMode="overlay" vectornator:layerName="Curve 3" d="M445.781 3098.89c-62.456 31.22-112.205 244.64-21.964 267.21 45.011 11.26 59.721-8.52 98.836-18.31 47.288-11.8 101.958 0 150.09 0"/>
    <path vectornator:blendMode="overlay" vectornator:layerName="Curve 4" d="M379.89 3336.81c-4.719 9.48-30.19 2.76-43.926 7.33-27.29 9.09-73.916 32.63-98.836 47.58-50.483 30.3-109.083 74.45-139.0901 124.47-49.6749 82.77-23.6346 187.63 80.5271 204.98 100.121 16.7 267.124-43.87 355.07-87.85"/>
    <path vectornator:blendMode="overlay" vectornator:layerName="Curve 5" d="m621.489 3596.72 3.673-21.96"/>
    <path vectornator:blendMode="overlay" vectornator:layerName="Curve 6" d="M780.724 3583.9c-11.826-3.07 5.436-23.84 16.473-16.47 11.624 7.75 3.691 21.72-16.473 16.47Z"/>
    <path vectornator:blendMode="overlay" vectornator:layerName="Curve 7" d="M907.033 3593.07c58.636 0 117.107 3.65 175.707 3.65"/>
    <path vectornator:blendMode="overlay" vectornator:layerName="Curve 8" d="M1104.7 3468.59c-34.72 0-66.91 40.88-54.9 76.88 3.48 10.48 22.55 20.31 29.27 29.29 28.66 38.21 82.31 120.87 43.92 172.05-19.02 25.36-56.69 39.5-80.52 58.56-57.61 46.1-103.263 107.51-161.074 153.75-27.252 21.81-77.368 63.41-69.545 102.51 6.134 30.7 46.994 40.97 73.218 36.6 50.391-8.42 94.557-37.96 142.761-47.59 51.64-10.33 116.65 5.73 164.73-18.3"/>
    <path vectornator:blendMode="overlay" vectornator:layerName="Curve 9" d="M1313.36 3907.88c-113.6 0-121.35 174.35-91.53 248.91 20.24 50.57 93.9 67.1 142.76 76.87 27.33 5.47 51.48 25.05 76.88 29.29 99.88 16.64 167.75-32.5 194.01-124.45 11.04-38.62 8.91-44.48 40.27-69.57 11.21-8.96 22.15-17.51 32.95-25.61 2.19-1.64 5.58-5.4 3.65-7.33-11.11-11.09-36.72 28.24-40.25 32.94-29.68 39.58-50.52 87.09-58.58 135.46-18.62 111.73 99.83 204.98 197.67 204.98"/>
    <path vectornator:blendMode="overlay" vectornator:layerName="Curve 10" d="M1888.06 4424.02c14.01 28.03 77.76 20.57 102.51 32.95 44.68 22.35 80.51-4.28 128.11 3.65 28.48 4.76 55.72 19.93 84.2 25.62 35.72 7.14 79.86-21.96 117.14-21.96"/>
    <path vectornator:blendMode="overlay" vectornator:layerName="Curve 11" d="M2462.79 4471.6c27.85-27.85 82.89-23.02 102.49-62.23 19.61-39.23-6.73-95.09 0-135.44 29.34-176.09 148.58-254.76 311.16-281.87 31.55-5.25 113.03-33.38 139.09-7.31"/>
    <path vectornator:blendMode="overlay" vectornator:layerName="Curve 12" d="M3000.89 3999.39c79.57-39.8 141.83 40.07 215.98 54.91 32.54 6.5 86.77 9.55 109.82 40.27 27.44 36.58 2.22 120.95 10.98 164.73 15.81 79.02 43.51 116.72 95.18 168.38"/>
    <path vectornator:blendMode="overlay" vectornator:layerName="Curve 13" d="M3359.63 4098.23c-12.85-6.43-2.53-11.65 3.66-21.97 23.91-39.85 64.29-54.91 109.82-54.91"/>
    <path vectornator:blendMode="overlay" vectornator:layerName="Curve 14" d="M3663.47 4339.82c-17.08 8.54-39.83 13.56-54.91 25.62-34.51 27.6-39.01 129.14-3.67 157.42 21.85 17.46 71.62 24.74 98.83 29.27 135.68 22.63 327.62-104.31 417.33-194 28.43-28.42 31.22-77.11 47.58-109.81"/>
    <path vectornator:blendMode="overlay" vectornator:layerName="Curve 15" d="M4124.7 3702.88c-6.44 3.22 66.61 143.32 69.55 175.71 3.3 36.27 7.56 70.74 14.65 106.16 1.38 6.93-10.98 60.99-10.98 32.95"/>
    <path vectornator:blendMode="overlay" vectornator:layerName="Curve 16" d="M4190.59 3830.99c105.73-52.85 232.77-35.85 336.78-87.85 17.08-8.54 76.87-33.65 76.87-58.57 0-6.13-38.85-3.5-43.92-7.32-17.54-13.15-76.87-69.03-76.87-87.86"/>
    <path vectornator:blendMode="overlay" vectornator:layerName="Curve 17" d="M4717.72 3640.65c-13.04 6.52 42.95-13.81 54.91-18.31 28.18-10.56 89.23-33.83 95.18-69.55 8.48-50.94 31.8-42.16 80.52-47.58 33.26-3.69 54.82 25.64 91.53 18.29 59.57-11.9 131.71-42.05 186.69-69.54"/>
    <path vectornator:blendMode="overlay" vectornator:layerName="Curve 18" d="M4721.37 3135.49c0 40.03 5 99.36 29.29 131.78 30.93 41.21 82.62 44.44 106.16 91.51"/>
  </g>
</svg>
